<svg width="512" height="512" viewBox="0 0 512 512" fill="none" xmlns="http://www.w3.org/2000/svg">
  <rect width="512" height="512" rx="128" fill="#ea580c"/>
  <path d="M128 320c0-35.3 28.7-64 64-64h128c35.3 0 64 28.7 64 64v32c0 17.7-14.3 32-32 32H160c-17.7 0-32-14.3-32-32v-32z" fill="white"/>
  <circle cx="160" cy="352" r="24" fill="#ea580c"/>
  <circle cx="352" cy="352" r="24" fill="#ea580c"/>
  <path d="M160 280c0-13.3 10.7-24 24-24h144c13.3 0 24 10.7 24 24v24H160v-24z" fill="white"/>
  <path d="M200 200c0-22.1 17.9-40 40-40h32c22.1 0 40 17.9 40 40v40H200v-40z" fill="white"/>
  <circle cx="240" cy="200" r="16" fill="#ea580c"/>
</svg> 